<svg width="32.000000" height="32.000000" viewBox="0 0 32 32" fill="none" xmlns="http://www.w3.org/2000/svg" xmlns:xlink="http://www.w3.org/1999/xlink">
	<desc>
			Created with Pixso.
	</desc>
	<defs>
		<radialGradient gradientTransform="translate(5.16265 31.5693) rotate(0) scale(38.6151 38.6151)" cx="0.000000" cy="0.000000" r="1.000000" id="paint_radial_1_132_0" gradientUnits="userSpaceOnUse">
			<stop stop-color="#FEC053"/>
			<stop offset="0.327270" stop-color="#F2203E"/>
			<stop offset="0.648480" stop-color="#B729A8"/>
			<stop offset="1.000000" stop-color="#5342D6"/>
		</radialGradient>
	</defs>
	<path id="Vector" d="M32 16C32 24.83 24.83 32 16 32C7.16 32 0 24.83 0 16C0 7.16 7.16 0 16 0C24.83 0 32 7.16 32 16Z" fill="url(#paint_radial_1_132_0)" fill-opacity="1.000000" fill-rule="evenodd"/>
	<path id="Vector" d="M19.87 25L12.12 25C10.76 24.99 9.46 24.45 8.5 23.49C7.54 22.53 7 21.23 7 19.87L7 12.12C7 10.76 7.54 9.46 8.5 8.5C9.46 7.54 10.76 7 12.12 7L19.87 7C21.23 7 22.53 7.54 23.49 8.5C24.45 9.46 24.99 10.76 25 12.12L25 19.87C24.99 21.23 24.45 22.53 23.49 23.49C22.53 24.45 21.23 24.99 19.87 25ZM12.12 8.54C11.17 8.54 10.26 8.92 9.59 9.59C8.92 10.26 8.54 11.17 8.54 12.12L8.54 19.87C8.54 20.82 8.92 21.73 9.59 22.4C10.26 23.07 11.17 23.45 12.12 23.45L19.87 23.45C20.82 23.45 21.73 23.07 22.4 22.4C23.07 21.73 23.45 20.82 23.45 19.87L23.45 12.12C23.45 11.17 23.07 10.26 22.4 9.59C21.73 8.92 20.82 8.54 19.87 8.54L12.12 8.54Z" fill="#FFFFFF" fill-opacity="1.000000" fill-rule="nonzero"/>
	<path id="Vector" d="M16 20.6C14.77 20.6 13.6 20.12 12.74 19.25C11.87 18.39 11.39 17.22 11.39 15.99C11.39 14.77 11.87 13.6 12.74 12.74C13.6 11.87 14.77 11.39 16 11.39C17.22 11.39 18.39 11.87 19.25 12.74C20.12 13.6 20.6 14.77 20.6 15.99C20.6 17.22 20.12 18.39 19.25 19.25C18.39 20.12 17.22 20.6 16 20.6ZM16 12.93C15.18 12.93 14.4 13.25 13.83 13.83C13.25 14.4 12.93 15.18 12.93 15.99C12.93 16.81 13.25 17.59 13.83 18.16C14.4 18.74 15.18 19.06 16 19.06C16.81 19.06 17.59 18.74 18.16 18.16C18.74 17.59 19.06 16.81 19.06 15.99C19.06 15.18 18.74 14.4 18.16 13.83C17.59 13.25 16.81 12.93 16 12.93Z" fill="#FFFFFF" fill-opacity="1.000000" fill-rule="nonzero"/>
	<path id="Vector" d="M21.91 11.12C21.91 11.27 21.88 11.41 21.82 11.55C21.77 11.68 21.69 11.8 21.58 11.91C21.48 12.01 21.36 12.09 21.23 12.15C21.09 12.2 20.95 12.23 20.8 12.23C20.66 12.23 20.51 12.2 20.38 12.15C20.24 12.09 20.12 12.01 20.02 11.91C19.92 11.8 19.83 11.68 19.78 11.55C19.72 11.41 19.69 11.27 19.69 11.12C19.69 10.98 19.72 10.83 19.78 10.7C19.83 10.56 19.92 10.44 20.02 10.34C20.12 10.24 20.24 10.15 20.38 10.1C20.51 10.04 20.66 10.01 20.8 10.01C20.95 10.01 21.09 10.04 21.23 10.1C21.36 10.15 21.48 10.24 21.58 10.34C21.69 10.44 21.77 10.56 21.82 10.7C21.88 10.83 21.91 10.98 21.91 11.12Z" fill="#FFFFFF" fill-opacity="1.000000" fill-rule="nonzero"/>
</svg>
