<svg width="19.000000" height="19.000000" viewBox="0 0 19 19" fill="none" xmlns="http://www.w3.org/2000/svg" xmlns:xlink="http://www.w3.org/1999/xlink">
	<desc>
			Created with Pixso.
	</desc>
	<defs/>
	<path id="Vector" d="M0.5 7.43C0.5 11.26 3.61 14.37 7.43 14.37C9.08 14.37 10.68 13.78 11.93 12.7L17.56 18.34C17.67 18.44 17.81 18.5 17.95 18.5C18.09 18.5 18.23 18.44 18.34 18.34C18.44 18.23 18.5 18.09 18.5 17.95C18.5 17.81 18.44 17.67 18.34 17.56L12.7 11.93C13.78 10.68 14.37 9.08 14.37 7.43C14.37 3.61 11.25 0.5 7.43 0.5C3.61 0.5 0.5 3.61 0.5 7.43ZM1.59 7.43C1.59 4.21 4.21 1.59 7.43 1.59C10.65 1.59 13.28 4.21 13.28 7.43C13.28 10.65 10.65 13.28 7.43 13.28C4.21 13.28 1.59 10.65 1.59 7.43Z" fill="#FFFFFF" fill-opacity="1.000000" fill-rule="nonzero"/>
	<path id="Vector" d="M7.43 14.87L7.43 14.87Q8.09 14.87 8.74 14.75Q9.38 14.64 10 14.41Q10.63 14.17 11.19 13.84Q11.55 13.63 11.89 13.37L17.21 18.69Q17.28 18.76 17.37 18.82Q17.45 18.88 17.55 18.92Q17.65 18.96 17.75 18.98Q17.85 19 17.95 19Q18.05 19 18.15 18.98Q18.25 18.96 18.35 18.92Q18.45 18.88 18.53 18.82Q18.62 18.76 18.69 18.69Q18.76 18.62 18.82 18.53Q18.88 18.45 18.92 18.35Q18.96 18.25 18.98 18.15Q19 18.05 19 17.95Q19 17.85 18.98 17.75Q18.96 17.65 18.92 17.55Q18.88 17.45 18.82 17.37Q18.76 17.28 18.69 17.21L13.37 11.89Q13.63 11.55 13.84 11.19Q14.17 10.63 14.41 10Q14.64 9.38 14.75 8.74Q14.87 8.09 14.87 7.43Q14.87 6.62 14.7 5.84Q14.55 5.18 14.28 4.54Q14.02 3.92 13.65 3.36Q13.24 2.72 12.69 2.18Q12.14 1.63 11.5 1.21Q10.94 0.84 10.32 0.58Q9.69 0.31 9.02 0.17Q8.25 0 7.43 0Q6.62 0 5.84 0.17Q5.18 0.31 4.54 0.58Q3.92 0.84 3.36 1.21Q2.72 1.63 2.18 2.18Q1.63 2.72 1.21 3.36Q0.84 3.92 0.58 4.54Q0.31 5.18 0.17 5.84Q0 6.62 0 7.43Q0 8.25 0.17 9.02Q0.31 9.69 0.58 10.32Q0.84 10.94 1.21 11.5Q1.63 12.14 2.18 12.69Q2.72 13.24 3.36 13.65Q3.92 14.02 4.54 14.28Q5.18 14.55 5.84 14.7Q6.62 14.87 7.43 14.87ZM12.7 11.93C13.78 10.68 14.37 9.08 14.37 7.43C14.37 3.61 11.25 0.5 7.43 0.5C3.61 0.5 0.5 3.61 0.5 7.43C0.5 11.26 3.61 14.37 7.43 14.37C9.08 14.37 10.68 13.78 11.93 12.7L11.93 12.7L17.56 18.34C17.67 18.44 17.81 18.5 17.95 18.5C18.09 18.5 18.23 18.44 18.34 18.34C18.44 18.23 18.5 18.09 18.5 17.95C18.5 17.81 18.44 17.67 18.34 17.56L12.7 11.93ZM1.59 7.43C1.59 4.21 4.21 1.59 7.43 1.59C10.65 1.59 13.28 4.21 13.28 7.43C13.28 10.65 10.65 13.28 7.43 13.28C4.21 13.28 1.59 10.65 1.59 7.43ZM6.27 2.21Q6.84 2.09 7.43 2.09Q8.02 2.09 8.59 2.21Q9.06 2.31 9.51 2.51Q9.95 2.69 10.34 2.95Q10.81 3.25 11.21 3.65Q11.61 4.05 11.91 4.52Q12.17 4.91 12.36 5.35Q12.55 5.8 12.65 6.27Q12.78 6.84 12.78 7.43Q12.78 8.02 12.65 8.59Q12.55 9.06 12.36 9.51Q12.17 9.95 11.91 10.34Q11.61 10.81 11.21 11.21Q10.81 11.61 10.34 11.91Q9.95 12.17 9.51 12.36Q9.06 12.55 8.59 12.65Q8.02 12.78 7.43 12.78Q6.84 12.78 6.27 12.65Q5.8 12.55 5.35 12.36Q4.91 12.17 4.52 11.91Q4.05 11.61 3.65 11.21Q3.25 10.81 2.95 10.34Q2.69 9.95 2.51 9.51Q2.31 9.06 2.21 8.59Q2.09 8.02 2.09 7.43Q2.09 6.84 2.21 6.27Q2.31 5.8 2.51 5.35Q2.69 4.91 2.95 4.52Q3.25 4.05 3.65 3.65Q4.05 3.25 4.52 2.95Q4.91 2.69 5.35 2.51Q5.8 2.31 6.27 2.21Z" fill="#FFFFFF" fill-opacity="1.000000" fill-rule="evenodd"/>
</svg>
